<?xml version="1.0" encoding="utf-8"?>
<!-- Generator: Adobe Illustrator 16.0.3, SVG Export Plug-In . SVG Version: 6.00 Build 0)  -->
<!DOCTYPE svg PUBLIC "-//W3C//DTD SVG 1.1//EN" "http://www.w3.org/Graphics/SVG/1.1/DTD/svg11.dtd">
<svg version="1.1" id="Capa_1" xmlns="http://www.w3.org/2000/svg" xmlns:xlink="http://www.w3.org/1999/xlink" x="0px" y="0px"
	 width="64px" height="64px" viewBox="0 0 64 64" enable-background="new 0 0 64 64" xml:space="preserve">
<rect fill-rule="evenodd" clip-rule="evenodd" fill="none" width="64" height="64"/>
<g>
	<path fill-rule="evenodd" clip-rule="evenodd" fill="#FFFFFF" d="M32.255,61.641C27.1,61.767,22.9,60.17,19.103,57.674
		c-3.129-2.057-5.7-4.784-7.729-7.999c-1.041-1.649-1.915-3.364-2.449-5.216c-0.845-2.928-1.114-5.933-1.094-8.994
		c0.021-3.041,0.907-5.782,2.276-8.421c0.455-0.877,0.48-0.859,1.096-0.066c0.301,0.388,0.582,0.86,0.988,1.079
		c0.69,0.372,0.498,0.715,0.227,1.234c-1.736,3.32-2.013,6.897-1.49,10.505c1.196,8.255,5.786,13.964,13.403,17.269
		c2.293,0.995,4.67,1.745,7.198,1.717c6.508-0.072,11.829-2.748,16.036-7.623c4.056-4.698,5.611-10.208,5.092-16.378
		c-0.171-2.033-0.685-3.928-1.501-5.764c-0.163-0.368-0.203-0.607,0.147-0.888c0.402-0.322,0.716-0.716,0.943-1.213
		c0.182-0.396,0.521-0.684,0.905-0.006c1.959,3.461,2.74,7.203,2.521,11.124c-0.48,8.63-4.436,15.296-11.697,19.952
		c-2.703,1.733-5.686,2.844-8.862,3.432C33.999,61.625,32.879,61.523,32.255,61.641z"/>
	<path fill-rule="evenodd" clip-rule="evenodd" fill="#FFFFFF" d="M8.561,2.416c1.032,0.37,1.789,0.961,2.623,1.404
		c2.501,1.328,5.158,2.164,7.917,2.775c3.315,0.735,6.48,1.872,9.145,4.102c1.144,0.958,2.086,2.089,2.963,3.284
		c0.168,0.229,0.343,0.455,0.576,0.766c1.081-1.662,2.37-3.021,3.806-4.25c1.266-1.083,2.74-1.793,4.218-2.52
		c2.446-1.203,5.176-1.405,7.723-2.25c2.299-0.764,4.487-1.744,6.53-3.048c0.236-0.15,0.497-0.465,0.763-0.257
		c0.277,0.217-0.008,0.515-0.104,0.775c-0.236,0.649-0.415,1.486-0.763,1.893c-0.584,0.684-1.149,1.464-1.961,1.991
		c-2.047,1.329-4.38,1.764-6.682,2.34c-3.017,0.754-5.988,1.633-8.378,3.793c-1.516,1.371-2.695,2.956-3.175,4.975
		c-0.139,0.584-0.421,0.787-1.007,0.799c-0.834,0.018-1.67-0.14-2.507,0.08c-0.517,0.135-0.556-0.456-0.591-0.685
		c-0.614-3.964-3.429-5.917-6.723-7.437c-2.363-1.091-4.955-1.383-7.43-2.083c-2.786-0.788-5.247-2.059-6.618-4.81
		c-0.05-0.102-0.11-0.206-0.129-0.314C8.69,3.345,8.639,2.949,8.561,2.416z"/>
	<path fill-rule="evenodd" clip-rule="evenodd" fill="#FF8C00" d="M50.282,38.482c-0.354,6.754-3.554,11.769-9.29,15.236
		c-1.842,1.113-3.776,2.021-5.883,2.522c-0.283,0.067-0.633,0.213-0.828-0.005c-0.198-0.224,0.043-0.535,0.118-0.808
		c0.619-2.229,1.656-4.246,3.029-6.102c0.882-1.191,1.992-2.163,3.002-3.23c2.412-2.548,4.897-5.018,7.77-7.064
		c0.509-0.362,0.948-0.822,1.433-1.221c0.163-0.134,0.275-0.461,0.543-0.315c0.233,0.127,0.079,0.422,0.104,0.641
		C50.293,38.25,50.282,38.366,50.282,38.482z"/>
	<path fill-rule="evenodd" clip-rule="evenodd" fill="#FFFFFF" d="M20.206,12.248c-1.684,0.611-3.053,1.39-4.042,2.708
		c-2.329,3.104-2.112,7.193,0.812,10.266c2.521,2.651,6.476,2.889,9.573,0.601c0.366-0.271,0.49-0.253,0.665,0.164
		c0.224,0.533,0.502,1.064,0.973,1.423c0.521,0.397,0.542,0.626-0.033,1.051c-4.087,3.02-10.493,2.809-14.321-2.191
		c-1.233-1.612-2.183-3.41-2.316-5.454c-0.145-2.208,0.113-4.405,1.181-6.417c0.445-0.841,1.021-1.601,1.55-2.39
		c0.465-0.693,1.014-0.823,1.771-0.694C17.372,11.545,18.733,11.736,20.206,12.248z"/>
	<path fill-rule="evenodd" clip-rule="evenodd" fill="#FFFFFF" d="M43.633,12.174c1.59-0.329,3.104-0.644,4.617-0.953
		c0.178-0.036,0.348,0.015,0.468,0.165c2.2,2.74,3.704,5.709,3.36,9.382c-0.426,4.558-4.5,8.893-9.019,9.521
		c-2.677,0.372-5.098-0.221-7.277-1.821c-0.432-0.317-0.63-0.545-0.104-1.025c0.504-0.458,0.772-1.411,1.296-1.542
		c0.484-0.121,1.145,0.618,1.771,0.874c2.028,0.83,3.964,0.737,5.976-0.299c2.926-1.507,4.189-3.939,4.214-7.042
		c0.024-3.094-1.524-5.321-4.32-6.666C44.31,12.62,43.956,12.557,43.633,12.174z"/>
	<path fill-rule="evenodd" clip-rule="evenodd" fill="#FFFFFF" d="M23.597,54.534c-0.409-0.468-0.762-0.882-1.126-1.285
		c-0.174-0.192-0.193-0.383-0.139-0.635c0.496-2.29,1.407-4.396,2.736-6.328c3.611-5.246,8.213-9.389,13.81-12.425
		c0.221-0.12,0.457-0.407,0.696-0.244c0.279,0.191,0.089,0.533,0.037,0.802c-0.277,1.456-1.01,2.548-2.264,3.431
		c-4.589,3.232-8.739,6.923-11.55,11.891C24.946,51.246,24.209,52.812,23.597,54.534z"/>
	<path fill-rule="evenodd" clip-rule="evenodd" fill="#FFFFFF" d="M13.01,38.9c0.02-0.254-0.263-0.857,0.101-1.061
		c0.433-0.243,0.777,0.341,1.141,0.588c2.414,1.644,4.304,3.76,5.685,6.338c0.495,0.926,0.75,1.845,0.525,2.915
		c-0.244,1.16-0.355,2.347-0.531,3.522c-0.028,0.192,0.026,0.454-0.188,0.541c-0.271,0.109-0.403-0.165-0.563-0.314
		c-1.875-1.766-3.457-3.811-4.569-6.088C13.67,43.415,13.042,41.287,13.01,38.9z"/>
	<path fill-rule="evenodd" clip-rule="evenodd" fill="#FF8C00" d="M38.552,44.214c0.281-1.51,0.603-2.958,1.253-4.276
		c1.569-3.185,3.992-5.65,6.812-7.741c0.815-0.604,1.636-1.199,2.408-1.856c0.491-0.417,0.704-0.249,0.741,0.332
		c0.067,1.041,0.083,2.089,0.222,3.121c0.104,0.773-0.152,1.221-0.796,1.633c-3.153,2.016-6.096,4.298-8.706,6.996
		C39.875,43.052,39.198,43.618,38.552,44.214z"/>
	<path fill-rule="evenodd" clip-rule="evenodd" fill="#FFFFFF" d="M37.176,42.997c0.242,1.768-0.563,2.96-1.914,4
		c-1.804,1.39-3.185,3.218-4.358,5.141c-0.632,1.036-1.116,2.227-1.348,3.464c-0.114,0.607-0.358,0.793-1.014,0.604
		c-2.174-0.626-2.104-0.572-1.347-2.675c1.525-4.231,4.614-7.224,7.816-10.143c0.362-0.33,0.742-0.643,1.125-0.949
		c0.284-0.228,0.582-0.626,0.967-0.396C37.441,42.245,37.178,42.685,37.176,42.997z"/>
	<path fill-rule="evenodd" clip-rule="evenodd" fill="#FFFFFF" d="M22.487,41.342c0.014,0.241,0.026,0.356,0.025,0.472
		c-0.002,0.312,0.099,0.714-0.237,0.862c-0.401,0.176-0.621-0.225-0.824-0.479c-2.132-2.657-4.566-4.99-7.383-6.91
		c-0.673-0.458-0.97-0.946-0.752-1.801c0.213-0.834,0.229-1.717,0.346-2.576c0.053-0.382,0.208-0.771,0.656-0.402
		c2.2,1.815,4.707,3.302,6.36,5.715C21.756,37.795,22.529,39.499,22.487,41.342z"/>
	<path fill-rule="evenodd" clip-rule="evenodd" fill="#FFFFFF" d="M24.018,41.483c-0.036-1.047,0.241-1.887,0.766-2.646
		c2.096-3.033,4.521-5.705,7.948-7.287c0.686-0.316,1.336-0.694,1.914-1.185c0.503-0.427,0.929-0.394,1.276,0.198
		c0.088,0.149,0.207,0.279,0.301,0.424c0.556,0.855,0.528,1.034-0.336,1.583c-1.758,1.117-3.526,2.21-5.145,3.54
		c-1.892,1.555-3.512,3.354-5.048,5.243c-0.146,0.18-0.292,0.364-0.466,0.514c-0.292,0.25-0.491,0.809-0.943,0.611
		C23.866,42.295,24.063,41.754,24.018,41.483z"/>
	<path fill-rule="evenodd" clip-rule="evenodd" fill="#FFFFFF" d="M22.553,16.495c1.976,0.002,3.244,1.262,3.234,3.212
		c-0.008,1.753-1.361,3.064-3.18,3.081c-1.784,0.017-3.248-1.45-3.317-3.221C19.228,17.972,20.906,16.24,22.553,16.495z"/>
	<path fill-rule="evenodd" clip-rule="evenodd" fill="#FFFFFF" d="M38.027,19.634c-0.018-1.844,1.286-3.177,3.142-3.213
		c1.826-0.035,3.152,1.312,3.19,3.242c0.033,1.663-1.386,3.097-3.06,3.158C39.917,22.872,37.902,21.541,38.027,19.634z"/>
	<path fill-rule="evenodd" clip-rule="evenodd" fill="#FFFFFF" d="M31.881,28.853c-0.448-0.452-0.566-0.97-0.813-1.412
		c-0.701-1.25-1.451-2.475-2.08-3.76c-0.494-1.011,0.397-2.181,1.511-2.045c0.928,0.113,1.85,0.104,2.764-0.031
		c0.771-0.114,1.265,0.19,1.659,0.814c0.394,0.624,0.199,1.115-0.197,1.655C33.636,25.554,32.708,27.138,31.881,28.853z"/>
</g>
</svg>
